<svg id="icon" width="20" height="20" viewBox="0 0 20 20" fill="none" xmlns="http://www.w3.org/2000/svg">
    <path id="icon"
        d="M4.98313e-07 10.007C-0.000465294 8.56768 0.32562 7.14701 0.953705 5.85196C1.58179 4.55692 2.4955 3.42125 3.62605 2.53046C4.75659 1.63967 6.0745 1.01699 7.48054 0.709286C8.88659 0.401587 10.3441 0.416893 11.7434 0.754053C11.8472 0.778696 11.9425 0.830813 12.0192 0.90494C12.0959 0.979067 12.1513 1.07247 12.1795 1.17537C12.2077 1.27826 12.2078 1.38685 12.1796 1.48975C12.1514 1.59265 12.096 1.68607 12.0193 1.76022C11.7122 2.05909 11.4914 2.43534 11.3804 2.84925C11.2694 3.26316 11.2722 3.69938 11.3885 4.11183C11.5049 4.52428 11.7304 4.89767 12.0413 5.19257C12.3523 5.48747 12.7371 5.69293 13.1551 5.78727C13.3032 5.82049 13.4356 5.90312 13.5305 6.02157C13.6254 6.14002 13.6771 6.28725 13.6772 6.43902C13.6771 6.92269 13.8244 7.3949 14.0995 7.7927C14.3747 8.1905 14.7645 8.49497 15.2171 8.66552C15.6697 8.83607 16.1636 8.86459 16.6328 8.74728C17.102 8.62997 17.5243 8.3724 17.8434 8.00893C17.9171 7.9248 18.0131 7.86317 18.1202 7.83111C18.2274 7.79904 18.3414 7.79784 18.4492 7.82765C18.557 7.85746 18.6542 7.91706 18.7296 7.99961C18.8051 8.08217 18.8557 8.18433 18.8758 8.29437C19.112 9.5941 19.0751 10.9288 18.7672 12.2135C18.4593 13.4981 17.8873 14.7046 17.0876 15.756C16.2878 16.8075 15.2779 17.6809 14.1221 18.3206C12.9663 18.9604 11.69 19.3524 10.3743 19.4718C9.05869 19.5911 7.73262 19.4352 6.48055 19.014C5.22848 18.5927 4.07785 17.9153 3.10194 17.025C2.12603 16.1346 1.34621 15.0508 0.812159 13.8425C0.278105 12.6343 0.00151463 11.328 4.98313e-07 10.007ZM5.94662 7.62834C5.94662 7.31292 5.82132 7.01041 5.59827 6.78737C5.37523 6.56432 5.07272 6.43902 4.7573 6.43902C4.44187 6.43902 4.13936 6.56432 3.91632 6.78737C3.69328 7.01041 3.56797 7.31292 3.56797 7.62834C3.56797 7.94377 3.69328 8.24628 3.91632 8.46932C4.13936 8.69236 4.44187 8.81767 4.7573 8.81767C5.07272 8.81767 5.37523 8.69236 5.59827 8.46932C5.82132 8.24628 5.94662 7.94377 5.94662 7.62834ZM9.51459 11.1963C9.83002 11.1963 10.1325 11.071 10.3556 10.848C10.5786 10.6249 10.7039 10.3224 10.7039 10.007C10.7039 9.69156 10.5786 9.38905 10.3556 9.16601C10.1325 8.94297 9.83002 8.81767 9.51459 8.81767C9.19916 8.81767 8.89665 8.94297 8.67361 9.16601C8.45057 9.38905 8.32527 9.69156 8.32527 10.007C8.32527 10.3224 8.45057 10.6249 8.67361 10.848C8.89665 11.071 9.19916 11.1963 9.51459 11.1963ZM13.0826 14.7643C13.0826 14.4489 12.9573 14.1463 12.7342 13.9233C12.5112 13.7003 12.2087 13.575 11.8932 13.575C11.5778 13.575 11.2753 13.7003 11.0523 13.9233C10.8292 14.1463 10.7039 14.4489 10.7039 14.7643C10.7039 15.0797 10.8292 15.3822 11.0523 15.6053C11.2753 15.8283 11.5778 15.9536 11.8932 15.9536C12.2087 15.9536 12.5112 15.8283 12.7342 15.6053C12.9573 15.3822 13.0826 15.0797 13.0826 14.7643ZM5.94662 14.7643C6.26205 14.7643 6.56456 14.639 6.7876 14.4159C7.01064 14.1929 7.13594 13.8904 7.13594 13.575C7.13594 13.2595 7.01064 12.957 6.7876 12.734C6.56456 12.5109 6.26205 12.3856 5.94662 12.3856C5.63119 12.3856 5.32868 12.5109 5.10564 12.734C4.8826 12.957 4.7573 13.2595 4.7573 13.575C4.7573 13.8904 4.8826 14.1929 5.10564 14.4159C5.32868 14.639 5.63119 14.7643 5.94662 14.7643Z"
        fill="#243D48" />
</svg>